<?xml version="1.0" standalone="no"?><!DOCTYPE svg PUBLIC "-//W3C//DTD SVG 1.1//EN" "http://www.w3.org/Graphics/SVG/1.1/DTD/svg11.dtd"><svg t="1508658093861" class="icon" style="" viewBox="0 0 1024 1024" version="1.1" xmlns="http://www.w3.org/2000/svg" p-id="2923" xmlns:xlink="http://www.w3.org/1999/xlink" width="200" height="200"><defs><style type="text/css"></style></defs><path d="M640 864 192 864c-53 0-96-43.1-96-96L96 128.1c0-53 43.1-96 96-96L832 32.1c53 0 96 43.1 96 96l0 448c0 17.7-14.3 32-32 32s-32-14.3-32-32l0-448c0-17.7-14.4-32-32-32L192 96.1c-17.7 0-32 14.4-32 32L160 768c0 17.7 14.4 32 32 32l448 0c17.7 0 32 14.3 32 32S657.7 864 640 864zM128 672c-8.2 0-16.4-3.1-22.6-9.4-12.5-12.5-12.5-32.8 0-45.3L264.8 458c29.2-29.2 73.7-36.5 110.7-18l173.6 86.8c12.3 6.2 27.1 3.8 36.8-6l287.4-287.4c12.5-12.5 32.8-12.5 45.3 0 12.5 12.5 12.5 32.8 0 45.3L631.2 566.1c-29.2 29.2-73.7 36.5-110.7 18l-173.6-86.8c-12.3-6.2-27.1-3.8-36.8 6L150.6 662.6C144.4 668.9 136.2 672 128 672zM384 352c-52.9 0-96-43.1-96-96s43.1-96 96-96 96 43.1 96 96S436.9 352 384 352zM384 224c-17.6 0-32 14.4-32 32s14.4 32 32 32 32-14.4 32-32S401.6 224 384 224zM768 864c-17.7 0-32-14.3-32-32L736 640c0-17.7 14.3-32 32-32s32 14.3 32 32l0 192C800 849.7 785.7 864 768 864zM896 736c-7.9 0-15.7-2.9-21.9-8.7L768 627.7l-106.1 99.7c-12.9 12.1-33.1 11.5-45.2-1.4-12.1-12.9-11.5-33.1 1.4-45.2l112.2-105.4c9.2-11.3 23-17.9 37.7-17.9s28.5 6.6 37.7 17.9l112.2 105.4c12.9 12.1 13.5 32.4 1.4 45.2C913 732.6 904.5 736 896 736z" p-id="2924"></path></svg>