<?xml version="1.0" standalone="no"?><!DOCTYPE svg PUBLIC "-//W3C//DTD SVG 1.1//EN" "http://www.w3.org/Graphics/SVG/1.1/DTD/svg11.dtd"><svg t="1516624500895" class="icon" style="" viewBox="0 0 1025 1024" version="1.1" xmlns="http://www.w3.org/2000/svg" p-id="1540" xmlns:xlink="http://www.w3.org/1999/xlink" width="200.1953125" height="200"><defs><style type="text/css"></style></defs><path d="M998.015206 784.300704C996.349357 782.684115 996.349357 782.684115 994.98672 781.340698 993.211059 779.566221 993.211059 779.566221 991.388294 777.743411 987.191155 773.544307 987.191155 773.544307 982.978669 769.329306 976.919475 763.270074 976.919475 763.270074 970.818387 757.191258 951.452858 737.869318 951.452858 737.869318 932.051008 718.513318 894.865882 681.416218 878.257754 664.845139 857.699904 644.32455 852.245402 638.893094 852.245402 638.893094 846.816064 633.480112 845.910611 632.577318 845.910611 632.577318 845.004838 631.674186 838.659834 625.34779 838.659834 625.34779 832.297459 619.012676 831.173056 617.876715 831.173056 617.876715 829.793254 616.471038 819.983699 606.482833 815.106541 602.153535 806.56375 597.723857L725.807834 628.024832C728.971667 629.620723 778.276314 659.907443 783.553594 661.672941 791.22601 664.463597 791.22601 664.463597 814.866483 655.269286 830.283072 625.457925 830.283072 625.457925 824.169715 613.459104 820.497926 607.117516 820.497926 607.117516 817.849114 604.141143 812.767622 598.546817 805.460326 593.46071 797.440922 589.717863 774.993254 579.241003 748.839539 579.408908 725.807834 595.761889 706.896992 613.97347 706.896992 613.97347 688.992371 631.841498 671.084198 649.713613 671.084198 649.713613 656.513011 664.267654L632.330571 688.435181 656.53792 712.57776C726.515469 782.36807 806.20279 861.886579 894.559846 950.087526L918.686938 974.171994 942.800781 950.074259C949.938522 942.941286 954.924858 937.929587 965.003238 927.777414 974.28503 918.430086 979.686656 913.008717 986.996333 905.721088 1002.909235 889.854394 1005.62169 886.989549 1011.290202 878.876582 1020.629062 865.51049 1025.227328 851.071379 1023.71744 834.858963 1022.749619 823.770656 1019.851686 813.403014 1014.071936 803.420237L954.994611 837.624371C955.322803 838.191226 955.558131 839.033126 955.72935 840.99367 955.633421 839.969677 955.998278 838.823974 955.331469 839.778336 953.068173 843.017645 950.826381 845.385382 938.797594 857.379245 931.39177 864.76272 925.919002 870.255494 916.616717 879.623469 906.51703 889.797037 901.602086 894.736979 894.54656 901.787789L918.67367 925.931027 942.787494 901.774522C854.423693 813.566835 774.729434 734.041402 704.743558 664.24279L680.640742 688.410278 704.768467 712.552896C719.30944 698.02903 719.30944 698.02903 737.207802 680.166701 755.12007 662.29104 755.12007 662.29104 769.692794 647.738195 766.318842 650.71993 766.728531 650.717299 768.569926 651.576723 768.861549 651.712826 768.797331 651.668134 767.318266 650.039795 765.695456 648.265293 765.695456 648.265293 762.558042 642.853914 756.723053 631.628394 775.354227 661.241357 790.5168 631.847372 806.232851 619.110671 794.215846 591.3069 806.5912 597.738106L790.5168 589.717863 754.83872 638.485824 784.03936 650.039795C784.435507 650.039795 776.744723 659.880147 781.089299 664.303846 782.494106 665.735283 782.494106 665.735283 784.03936 667.295021 790.468973 673.697498 790.468973 673.697498 796.805088 680.015027 797.710874 680.91817 797.710874 680.91817 798.616973 681.821613 804.056941 687.24519 804.056941 687.24519 809.509267 692.674451 830.037203 713.165235 846.650618 729.741581 883.83783 766.840762 903.238944 786.196032 903.238944 786.196032 922.636736 805.550112 928.679539 811.570848 928.679539 811.570848 934.699789 817.591117 938.901318 821.795155 938.901318 821.795155 943.114106 826.009914 944.947827 827.84368 944.947827 827.84368 946.78425 829.678778 948.753517 831.620621 948.753517 831.620621 950.44736 833.263469 953.929523 836.646432 1013.999238 845.610323 1013.876947 845.404493L1013.87696 803.087814C1009.799936 796.225856 1005.999898 792.057914 998.015206 784.300704L998.015206 784.300704ZM513.633928 623.392973C509.505712 619.930099 509.505712 619.930099 505.398495 616.477816 495.110473 607.355014 490.534334 603.294099 484.249215 597.683955 477.386268 591.425821 469.914951 584.587285 461.304937 576.683996 459.461898 574.828127 459.461898 574.828127 456.815453 572.163486 448.053503 563.560018 448.053503 563.560018 439.694456 555.349388 437.737626 553.38896 437.737626 553.38896 435.588836 551.239708 433.071426 548.717626 433.071426 548.717626 431.953743 547.5942 427.106504 542.509556 427.106504 542.509556 421.782077 536.921695 415.560505 530.389618 415.560505 530.389618 409.315113 523.841529 405.542753 519.604447 405.542753 519.604447 401.036413 514.56564 395.579427 508.460614 395.579427 508.460614 390.122019 502.353748 384.512357 495.741684 384.512357 495.741684 378.378201 488.534846 376.121457 485.188758 372.334934 480.420589 365.925675 472.674765 363.469121 469.71024 363.469121 469.71024 361.146474 466.8939 356.074342 460.719542 352.888963 456.564846 350.300683 452.653425 328.39562 419.606756 324.616471 400.661807 336.62813 388.900659L361.312642 364.730957 336.846561 340.34017C304.732942 308.325379 283.015865 286.652532 218.77939 222.528007 161.875632 165.723491 132.120718 136.034211 98.787382 102.815172L73.804629 77.918084 49.740093 103.703759C43.310408 110.593307 33.875153 123.37746 29.774808 130.970417 20.976899 147.319512 14.625186 163.623481 10.106649 181.00494-3.975754 235.118653-2.95379 290.013438 10.757421 351.16866 17.829093 382.763007 28.572821 413.099526 46.253526 454.647619 50.867237 465.521934 56.250293 476.496989 63.005743 489.100389 67.457098 497.405121 72.234016 505.945477 81.436988 522.298985 82.300259 523.846242 82.300259 523.846242 83.159719 525.391948 87.695066 533.563092 92.692903 541.628794 99.386963 551.813117 103.71933 558.363055 103.71933 558.363055 107.965364 564.724899 112.445715 571.449714 115.299461 575.801593 118.113855 580.245521 120.492474 583.643249 120.492474 583.643249 121.682348 585.286917 123.135779 587.294833 123.135779 587.294833 124.586893 589.300327 127.87977 593.853405 127.87977 593.853405 131.153402 598.390618 135.796514 605.461099 141.478819 612.931924 150.177955 623.673202 153.010397 627.161279 153.010397 627.161279 155.77681 630.557959 163.347039 639.863924 167.527371 645.212134 171.581775 650.940518 177.024502 657.61152 177.024502 657.61152 180.760129 662.063629 185.289153 667.460819 185.289153 667.460819 189.276525 672.217165 195.501841 679.298637 195.501841 679.298637 201.170692 685.728166 209.038237 694.651162 209.038237 694.651162 216.266881 702.85751 223.560535 710.674003 223.560535 710.674003 230.16045 717.725325 238.966844 727.129446 238.966844 727.129446 247.795808 736.535136 250.445324 739.213229 250.445324 739.213229 252.378214 741.144634 254.673843 743.438016 254.673843 743.438016 256.178769 744.944435 263.134089 751.902746 268.700482 757.456403 281.173779 769.889926 282.954463 771.664947 282.954463 771.664947 284.734543 773.439456 287.220581 775.922534 287.220581 775.922534 288.469791 777.166458 290.32832 779.016538 290.32832 779.016538 292.151576 780.83577 295.020841 783.523418 295.020841 783.523418 296.934749 785.293587 306.734543 794.361837 306.734543 794.361837 316.554487 803.443117 319.687726 806.33792 319.687726 806.33792 322.824107 809.232314 327.595841 813.618118 327.595841 813.618118 332.324823 817.963091 341.573217 825.950221 341.573217 825.950221 350.000463 833.191808 356.813992 839.045434 356.813992 839.045434 363.61536 844.89248 364.881791 845.981773 364.881791 845.981773 366.147747 847.07104 376.580961 855.433933 386.500193 863.382534 397.60012 872.298074 404.254957 877.30919 408.309947 880.365306 418.146218 887.796493 425.073719 892.440678 430.010988 895.869158 437.867664 901.456832 443.294431 905.323258 443.294431 905.323258 448.882664 909.278362 459.167782 916.520589 467.045539 921.745338 475.1913 926.549453 479.619928 929.158861 485.355221 932.566534 495.536228 938.613862 503.717417 943.458163 509.988353 947.113606 516.152753 950.605818 524.729231 955.464499 532.568641 959.694669 540.227869 963.557037 562.843497 974.977619 585.828664 984.99191 609.782509 993.964282 625.701899 999.940384 633.202938 1002.508998 643.256358 1004.983046 646.856538 1005.871334 650.15241 1006.760448 656.386778 1008.498592 659.656256 1009.411078 659.656256 1009.411078 663.050138 1010.347514 670.165779 1012.297594 675.678752 1013.678528 681.355488 1014.860634 736.049978 1026.286688 786.570112 1027.415226 834.0376 1015.827347 854.446022 1010.84791 869.993171 1005.483104 886.001344 996.956794 898.260013 990.506458 912.447917 980.76944 921.673946 971.170835L944.890752 947.016429 921.172467 923.354246C889.67913 891.935411 862.696909 865.012147 802.365216 804.809069 741.791354 744.364864 715.611859 718.243264 683.121267 685.83136L658.981894 661.750451 634.875966 685.864838C622.63906 698.106042 609.834003 694.672064 569.418056 667.60857 563.662942 663.756358 558.03826 659.364614 548.538311 651.469485 546.498432 649.772141 546.498432 649.772141 544.412122 648.033722 533.349301 638.820202 527.21964 633.937324 519.67566 628.611145 515.889251 625.28403 515.889251 625.28403 513.633928 623.392973L513.633928 623.392973ZM500.725598 700.488845C502.794954 702.213158 502.794954 702.213158 504.906545 703.97017 516.106017 713.277715 523.212086 718.826131 531.440908 724.334125 597.48491 768.55879 649.54608 753.308026 649.54608 753.308026 682.033645 785.716915 693.573933 792.688077 754.112672 853.097235 814.478854 913.334726 841.463405 940.260314 872.959315 971.681722L897.065894 947.517984 872.457843 923.865139C869.13977 927.317216 860.557728 933.206982 854.060928 936.62576 843.713069 942.136781 833.199078 945.764806 817.852282 949.509261 781.283462 958.436531 740.754291 957.531174 695.293619 948.034131 691.227757 947.187462 686.96112 946.118726 681.093107 944.510566 677.975174 943.650285 677.975174 943.650285 674.719808 942.741824 667.859046 940.829037 664.062118 939.804755 659.588954 938.701088 652.997786 937.079059 647.173005 935.084448 633.750856 930.045811 612.058582 921.92055 591.350996 912.898566 570.982303 902.612653 564.370732 899.278592 557.478461 895.559501 549.801107 891.210189 544.08282 887.970707 538.155311 884.51545 530.317446 879.874438 520.275258 873.909402 514.402873 870.420269 509.857661 867.74217 503.606199 864.055251 497.09796 859.73881 488.185005 853.462784 482.908412 849.728243 482.908412 849.728243 477.431916 845.826598 468.949821 839.794125 463.44869 835.974099 457.485354 832.051552 449.408592 825.858771 445.282806 822.749299 439.443087 818.373082 429.203785 810.124115 419.237702 802.137971 409.713172 794.530125 401.30064 787.267142 401.30064 787.267142 394.487908 781.414208 386.080326 774.18951 386.080326 774.18951 377.69997 766.973075 373.788037 763.355469 373.788037 763.355469 369.065365 759.014835 365.999688 756.1856 365.999688 756.1856 362.885073 753.308 353.104892 744.263494 353.104892 744.263494 343.288515 735.179904 341.368084 733.403706 341.368084 733.403706 339.445908 731.626605 338.497939 730.645651 338.497939 730.645651 336.634616 728.790822 335.403405 727.564813 335.403405 727.564813 334.189376 726.353587 331.148182 723.318093 331.148182 723.318093 329.367139 721.542714 316.908184 709.123475 311.375901 703.603846 304.477281 696.702272 302.934211 695.157677 302.934211 695.157677 301.392051 693.617005 298.722593 690.949766 298.722593 690.949766 296.857057 689.079232 288.774328 680.44681 288.774328 680.44681 279.994845 671.07143 273.405352 664.031245 273.405352 664.031245 266.804275 656.97785 260.247111 649.510227 260.247111 649.510227 253.003997 641.295437 246.710392 634.157332 246.710392 634.157332 241.052329 627.735602 237.586419 623.585435 237.586419 623.585435 233.586301 618.818557 229.326405 613.741667 229.326405 613.741667 225.607192 609.30401 222.128094 604.193007 217.208174 597.898584 208.732461 587.479521 205.932018 584.040973 205.932018 584.040973 203.22703 580.709864 195.802126 571.541947 191.241795 565.546241 187.310213 559.601754 183.211823 553.873187 183.211823 553.873187 179.894995 549.286998 178.436437 547.271214 178.436437 547.271214 176.979341 545.258236 175.787875 543.612367 175.787875 543.612367 174.597908 541.968608 172.623233 538.72787 169.526189 534.004968 164.776072 526.875245 160.508268 520.480339 160.508268 520.480339 156.432179 514.317837 150.592625 505.433555 146.412519 498.687539 142.841051 492.252979 141.936303 490.625814 141.936303 490.625814 141.040298 489.019888 131.709885 472.434737 127.285994 464.525534 123.17239 456.850932 117.318342 445.929248 112.80519 436.727766 109.081492 427.951211 92.871773 389.859757 83.359105 362.999318 77.371028 336.246192 65.882675 285.005431 65.061335 240.887161 76.173034 198.188815 79.336036 186.021696 83.702123 174.814554 89.864457 163.363076 91.020151 161.223057 97.015374 153.099921 99.647295 150.279761L74.693693 126.99176 50.600006 151.168348C83.915692 184.369798 113.660498 214.04899 169.607053 269.897972 234.799228 334.976532 256.522161 356.655223 288.650661 388.684849L288.869092 340.124362C245.310885 382.774136 255.311146 432.90565 293.38637 490.3471 297.539349 496.623119 301.957102 502.385204 308.398061 510.225847 310.91282 513.275146 310.91282 513.275146 313.331437 516.193714 318.800853 522.803704 321.816295 526.60089 324.653526 530.5554L326.419955 532.811158C332.524042 539.982707 332.524042 539.982707 338.668118 547.207181 344.675604 553.945267 344.675604 553.945267 350.14702 560.066436 354.673292 565.127532 354.673292 565.127532 359.209032 570.191086 366.132472 577.47383 366.132472 577.47383 372.356372 584.008344 377.703864 589.620419 377.703864 589.620419 383.076647 595.245449 384.712996 596.899744 384.712996 596.899744 385.876625 598.066316 389.470227 601.66226 389.470227 601.66226 391.619289 603.81302 400.230138 612.273247 400.230138 612.273247 408.624264 620.509779 411.276712 623.184243 411.276712 623.184243 414.261597 626.135974 423.80701 634.927289 431.334806 641.817523 438.526895 648.373165 445.165032 654.300896 449.813081 658.425626 460.806819 668.158586 465.614426 672.214022 465.614426 672.214022 469.769411 675.699347 472.034051 677.598214 472.034051 677.598214 474.295618 679.493958 476.178835 681.072557 476.178835 681.072557 478.059084 682.648979L480.30361 684.377574C485.92512 688.346458 491.002186 692.390835 500.725598 700.488845ZM437.945169 250.964421C436.7618 237.939101 433.279289 226.598839 425.96761 215.341564 422.182863 209.572944 418.757358 205.930534 412.36826 199.873358 410.288202 197.906186 410.288202 197.906186 408.874723 196.527501 401.777786 189.427715 401.777786 189.427715 394.620538 182.283567 391.152511 178.823457 391.152511 178.823457 387.687084 175.367181 385.792432 173.477626 385.792432 173.477626 383.898457 171.588743 370.0812 157.808185 370.0812 157.808185 356.263572 144.024269 341.063853 128.860285 341.063853 128.860285 325.863999 113.694199 296.846678 84.73981 296.846678 84.73981 267.834728 55.792765 262.150656 50.123948 262.150656 50.123948 256.471937 44.456791 248.895729 36.895293 248.895729 36.895293 241.301403 29.320642 239.752746 27.756239 239.752746 27.756239 237.742312 25.669426 230.408369 18.072843 226.214852 14.255295 219.425974 10.279881 209.335744 4.288881 199.089753 1.379689 187.364938 0.271901 170.843067-1.215191 156.367421 3.451928 142.994609 12.940803 135.195382 18.474858 133.905564 19.702287 116.915433 36.662964 104.780665 48.766658 104.780665 48.766658 94.588461 58.928319 84.380888 69.106031 84.380888 69.106031 72.220148 81.23928L48.004908 105.405361 72.226545 129.565031C147.558295 204.704059 227.267802 284.23798 310.267748 367.079405L334.367197 391.132828 358.47926 367.092048C370.494269 355.111112 370.494269 355.111112 380.136375 345.492439 389.778676 335.872841 389.778676 335.872841 401.779457 323.902441L353.572564 275.568723C341.565901 287.54499 341.565901 287.54499 331.929835 297.158369 322.286879 306.777889 322.286879 306.777889 310.280422 318.750298L334.379841 342.921173 358.491933 318.762941C275.486979 235.916518 195.772289 156.377423 120.435027 81.232899L96.330786 105.398965 120.441423 129.55865C132.586502 117.441024 132.586502 117.441024 142.779583 107.277761 152.981162 97.106755 152.981162 97.106755 165.136262 84.982778 177.998476 72.142863 179.386082 70.822376 182.498351 68.614019 183.423817 67.957342 182.211441 68.348227 181.095241 68.247783 183.331469 68.459407 184.043139 68.661475 184.754252 69.083643 184.421686 68.889613 185.742958 70.092427 188.630447 73.083322 190.660627 75.193574 190.660627 75.193574 193.145119 77.704746 200.674941 85.215151 200.674941 85.215151 208.249825 92.775325 213.934425 98.448352 213.934425 98.448352 219.628143 104.126789 248.628335 133.062105 248.628335 133.062105 277.646921 162.017756 292.848437 177.1855 292.848437 177.1855 308.051194 192.352516 321.87218 206.139782 321.87218 206.139782 335.693321 219.924213 337.587541 221.81334 337.587541 221.81334 339.481366 223.702071 342.9431 227.154663 342.9431 227.154663 346.401799 230.605467 353.530923 237.721546 353.530923 237.721546 360.650088 244.843404 363.304314 247.433509 363.304314 247.433509 365.401905 249.413386 367.957561 251.836271 368.978819 252.922196 368.80588 252.658638 369.476043 253.691123 369.719072 254.482511 369.95838 257.11655 369.95251 257.051519 366.2201 262.930179 353.549442 275.591807L401.80258 323.879357C428.339922 297.360927 440.412973 278.345503 437.945169 250.964421L437.945169 250.964421Z" p-id="1541"></path></svg>