<?xml version="1.0" standalone="no"?><!DOCTYPE svg PUBLIC "-//W3C//DTD SVG 1.1//EN" "http://www.w3.org/Graphics/SVG/1.1/DTD/svg11.dtd"><svg t="1517455453075" class="icon" style="" viewBox="0 0 1025 1024" version="1.1" xmlns="http://www.w3.org/2000/svg" p-id="1904" xmlns:xlink="http://www.w3.org/1999/xlink" width="200.1953125" height="200"><defs><style type="text/css"></style></defs><path d="M939.83232 230.88128C784.5376-5.4016 467.16928-71.09632 230.8864 84.19328c-236.28288 155.2896-301.9776 472.66304-146.688 708.94592 155.2896 236.27776 472.67328 301.9776 708.94592 146.688S1095.12192 467.16416 939.83232 230.88128zM770.03776 904.832c-216.98048 142.59712-508.3648 82.2016-650.9568-134.69184C-23.49568 553.15968 36.89984 261.78048 253.77792 119.18848c216.9856-142.58688 508.3648-82.19136 650.95168 134.69184S987.01824 762.24 770.03776 904.832zM879.43168 270.47936c-133.39136-202.88512-405.9648-259.2768-608.84992-125.98784C67.69664 277.78048 11.20256 550.46144 144.5888 753.34144c133.28896 202.89024 405.96992 259.3792 608.84992 125.98784C956.32896 745.93792 1012.81792 473.36448 879.43168 270.47936zM741.9392 861.94176c-193.28 126.99136-452.96128 73.28768-579.95264-120.00256C34.9952 548.6592 88.69376 288.97792 281.97888 161.98656c193.28512-126.99136 452.9664-73.2928 579.95776 119.99232C989.02528 475.264 935.22944 734.94528 741.9392 861.94176zM390.47168 327.17312c60.89728-39.99744 134.29248-45.99808 197.7856-22.69696l21.888-14.40256c-72.88832-32.19968-159.98464-27.89888-231.5776 19.09248-71.59296 46.99648-109.98784 125.29152-109.3888 204.98432l21.89824-14.49984C294.87616 432.06656 329.5744 367.17056 390.47168 327.17312zM645.3504 714.84416c71.58784-46.99648 109.98784-125.29664 109.3888-204.98432l-21.89312 14.40256c-3.79392 67.59936-38.49728 132.49024-99.39456 172.48768-60.89216 40.00256-134.28736 45.98784-197.78048 22.70208l-21.89824 14.49984C486.66112 766.14144 573.76256 761.84064 645.3504 714.84416zM325.47328 290.176 340.37248 250.7776 382.37184 252.77952 349.57312 226.4832 364.47232 187.0848 329.27744 210.18624 296.37632 183.8848 307.47648 224.48128 272.2816 247.5776 314.37312 249.57952ZM284.9792 331.776 244.08064 321.87392 240.98304 279.87968 218.88 315.6736 177.98656 305.67936 205.184 337.87392 183.08608 373.67296 221.98272 357.67296 249.28256 389.77024 246.08256 347.77088ZM436.66944 232.18176 466.7648 202.78272 504.064 222.2848 485.46304 184.58624 515.5584 155.1872 473.86624 161.28512 455.26528 123.48928 448.16384 164.98688 406.47168 171.08992 443.76576 190.68416ZM561.96096 226.58048 601.74848 212.6848 627.2512 246.08256 626.24768 204.0832 666.05056 190.08512 625.64864 177.98656 624.74752 135.99232 600.7552 170.58816 560.4608 158.4896 585.94816 191.98464ZM188.88704 452.864 168.28928 416.16896 163.38944 457.96352 122.09152 466.16576 160.28672 483.7632 155.38688 525.55776 183.9872 494.66368 222.1824 512.26112 201.58464 475.56608 230.18496 444.56448ZM698.44992 733.75232 683.55072 773.14048 641.55136 771.13856 674.35008 797.44 659.45088 836.8384 694.65088 813.74208 727.552 840.02816 716.45184 799.44192 751.6416 776.34048 709.54496 774.33856ZM840.84224 650.25024 801.94048 666.25024 774.64064 634.14784 777.84064 676.15232 738.944 692.15232 779.84256 702.04928 782.94016 744.0384 805.03808 708.24448 845.94176 718.24384 818.7392 686.04928ZM587.25376 791.74144 557.1584 821.14048 519.8592 801.6384 538.46016 839.34208 508.3648 868.736 550.06208 862.62784 568.65792 900.4288 575.75424 858.94144 617.45152 852.82816 580.16256 833.23904ZM461.96736 797.3376 422.1696 811.2384 396.672 777.84064 397.6704 819.84 357.87264 833.83808 398.26944 845.94176 399.17056 887.93088 423.168 853.33504 463.46752 865.42848 437.96992 831.93856ZM863.6416 540.16 868.54144 498.36032 839.936 529.25952 801.7408 511.66208 822.33856 548.36224 793.73824 579.34848 835.04128 571.0592 855.63392 607.75424 860.53376 565.95968 901.83168 557.76256ZM401.90976 679.57248l68.92032-49.38752c5.6576-4.06016 8.42752-9.06752 8.31488-15.03232-0.03584-1.99168-0.68096-4.55168-1.92-7.69024-2.64704-0.88064-4.91008-2.05824-6.79424-3.53792-1.87904-1.48992-3.63008-3.35872-5.23776-5.61152-1.00864-1.408-2.12992-3.30752-3.34336-5.71904-0.15872-0.38912-1.79712-3.81952-4.91008-10.28096 2.6368 9.8304 3.80928 17.61792 3.52256 23.36768-0.43008 8.87808-3.94752 15.68256-10.5216 20.38784-1.00352 0.72192-1.8176 1.23904-2.46272 1.57184l-48.6912 34.89792c-1.85856 0.56832-4.74624 1.6384-8.67328 3.17952-3.46624 0.97792-6.4256 0.71168-8.88832-0.79872l-31.13984-43.43808 57.68192-41.33888 4.82816 6.73792c1.72544-0.2304 3.10272-0.54784 4.12672-0.96768 1.01888-0.41984 2.19648-1.11104 3.52768-2.05824 2.08384-1.48992 3.89632-3.6096 5.4528-6.35904 0.42496-0.8192 0.9472-1.94048 1.55136-3.3792l-27.8016-35.64032-0.01024-7.92064-21.10464 3.77856-1.48992 9.00096L304.1792 595.40992l7.17824 0.52224 1.92-3.65056 68.1728-48.84992 24.68864 34.4576-57.68192 41.33888-9.12896-12.73856-0.76288-7.38816c-5.888-0.31232-11.71968 0.96256-17.47456 3.82976-0.896 0.52224-1.99168 1.1776-3.3024 1.98144l56.36608 78.6688c6.4768 1.64864 13.03552 1.47968 19.68128-0.50176C396.01152 682.40896 398.69952 681.2416 401.90976 679.57248zM565.4272 486.62016c2.62656 0.512 5.10976-0.07168 7.43936-1.7408s3.72224-3.86048 4.1728-6.5792c0.44032-2.70848-0.34304-5.48352-2.37568-8.31488-0.77824-1.08032-1.41312-1.88928-1.92-2.41152-6.77376-3.83488-14.16192-5.7856-22.144-5.8624-5.65248 0.0256-11.23328 0.93696-16.7424 2.7392-3.34336 1.13664-5.56032 2.09408-6.64064 2.8672 7.49056 0.43008 14.72512 2.80064 21.71904 7.11168 2.32448 1.48992 5.12512 3.6352 8.40192 6.4512C559.6672 484.13184 562.36032 486.04672 565.4272 486.62016zM503.08096 610.85184c-1.22368 5.15072-1.95072 7.81824-2.2016 8.00256 3.72224-4.81792 6.81472-10.16832 9.25696-16.09216 1.83808-4.45952 3.6864-10.32192 5.53984-17.58208 0.256-1.05984 1.7152-7.2704 4.39808-18.64192 10.17344 3.29216 20.92544 3.52256 32.256 0.70144 8.96-2.26816 19.01568-6.7584 30.18752-13.51168 5.54496-3.34848 14.63808-9.53856 27.2896-18.6112-2.25792-4.56192-3.63008-9.80992-4.11136-15.75936-0.12288-1.92512-0.11776-4.3776 0-7.3728-6.50752 6.05184-11.85792 10.86464-16.09728 14.45376-4.21888 3.59936-8.75008 7.13216-13.57312 10.58816-8.99072 6.44096-17.66912 11.20768-26.03008 14.3104-9.76896 3.58912-19.35872 4.98176-28.76416 4.16256-1.13152-10.01984-3.30752-20.4288-6.50752-31.23712-2.46272-8.18688-5.18144-15.75424-8.1408-22.70208-1.37216-2.7904-2.73408-5.6576-4.08064-8.6016l1.48992-9.00096-21.63712 3.03104 0.01024 7.93088-16.4864 11.81184-4.11136-31.06304-23.77728 7.96672c8.35584 11.65312 14.9504 25.44128 19.8144 41.35936 3.51744 11.5968 5.9136 23.28576 7.19872 35.09248 0.85504 8.17152 1.19296 12.90752 1.00864 14.2592 2.95424-8.13056 4.48-17.2288 4.5568-27.32032 0.03072-3.3024-0.19456-7.48032-0.67584-12.54912 6.91712 7.00928 15.03232 13.85984 24.35072 20.5312 3.08736 2.2016 7.05536 4.8384 11.89888 7.9104 1.08544 8.54016 1.18784 17.7408 0.29184 27.5712C505.82016 597.36064 504.69376 604.13952 503.08096 610.85184zM476.20096 536.94976c-1.59744-0.9984-3.63008-2.24768-6.0928-3.75808-0.85504-4.16768-1.82272-10.28096-2.92352-18.31424-0.17408-1.1264-0.38912-2.4832-0.64-4.0704l17.98144-12.88192c3.94752 6.74304 7.78752 15.08352 11.49952 25.01632 2.61632 6.8096 4.80768 13.55776 6.56896 20.22912 1.51552 5.46816 2.23232 8.2176 2.1504 8.28928C495.54944 547.58912 486.03136 542.75072 476.20096 536.94976zM507.35616 439.6032c-3.79904 0.3328-7.09632 1.14688-9.8816 2.44736-2.77504 1.3056-5.376 2.82112-7.79264 4.54656-0.3328 0.24064-0.82944 0.59904-1.49504 1.07008l65.49504 91.392c1.94048 0.25088 3.64032 0.19968 5.08928-0.13824 1.44896-0.3584 2.84672-1.00864 4.17792-1.96096 1.9968-1.42848 3.67616-3.38944 5.03808-5.87776 0.42496-0.80896 0.90624-1.90976 1.41824-3.29216L509.39904 447.2064 507.35616 439.6032zM440.9088 543.26784c-0.06144 0.128-0.1024 0.27136-0.15872 0.39936C440.81152 543.63136 440.86272 543.48288 440.9088 543.26784zM687.14496 409.40544c1.75616-0.36864 3.10272-0.73728 4.03968-1.09568 0.93696-0.3584 2.2784-1.16224 4.03456-2.41664 2.0736-1.48992 3.88608-3.3536 5.43744-5.59616 0.4864-0.72704 1.0496-1.69472 1.69472-2.91328l-38.54336-50.61632-0.01536-7.92576-18.52416 4.20352-1.47968 9.00096-35.96288 25.76896-17.23904 4.41856 44.12928 64.74752c1.67424 0.56832 3.18464 0.71168 4.56192 0.41984 1.36704-0.28672 2.67264-0.88064 3.92192-1.77664 1.24928-0.896 2.41152-2.16576 3.49696-3.82464 0.30208-0.4608 0.6656-1.1008 1.08544-1.90976l-3.01056-5.78048 13.4912-9.66144 16.1024 22.47168-29.21472 20.93568 7.17312 0.52736 1.1776-3.10784 22.47168-16.10752 15.04256 20.97664-39.71072 28.45184 7.72096 1.27488 1.17248-3.10784 82.40128-59.04384-1.07008-1.50016-18.75456-2.43712-3.29728 15.96928-16.48128 11.80672-15.03232-20.97664 32.20992-23.08096-1.07008-1.50016-17.46944-2.22208-2.54464 15.42656-12.73344 9.12896-16.10752-22.47168 14.2336-10.19904L687.14496 409.40544zM636.40576 360.73472l10.48576-7.51616 17.1776 23.97184-14.2336 10.19904-15.03232-20.97152L636.40576 360.73472zM607.18592 381.6704l13.4912-9.66144 17.17248 23.97184-13.4912 9.66144L607.18592 381.6704zM643.15392 431.86688l-17.1776-23.97184 13.48096-9.66144 17.1776 23.97184L643.15392 431.86688zM668.6208 413.61408l-17.17248-23.97184 14.22848-10.19904 17.17248 23.97184L668.6208 413.61408zM636.96896 453.2992 622.21312 470.6816 602.34752 442.96192 618.83392 431.15008 617.75872 429.65504 603.82208 426.03008 601.7024 438.89152 600.20736 439.96672 579.80416 411.49952 580.6592 406.35392 597.13536 394.5472 596.06016 393.04704 580.096 389.74976 576.0512 406.25664 548.33664 426.11712 554.75712 427.18208 556.68736 423.53152 564.1728 418.16576 586.7264 449.62816 574.74048 458.2144 582.4512 459.48928 583.61856 456.38144 588.87168 452.62336 611.41504 484.08576 601.35936 496.95744 617.45664 511.49824Z" p-id="1905" fill="#707070"></path></svg>