<?xml version="1.0" standalone="no"?><!DOCTYPE svg PUBLIC "-//W3C//DTD SVG 1.1//EN" "http://www.w3.org/Graphics/SVG/1.1/DTD/svg11.dtd"><svg t="1511317720379" class="icon" style="" viewBox="0 0 1024 1024" version="1.1" xmlns="http://www.w3.org/2000/svg" p-id="5680" xmlns:xlink="http://www.w3.org/1999/xlink" width="200" height="200"><defs><style type="text/css"></style></defs><path d="M933.447 176.422l0.32 0.277S746.78 363.703 684.45 426.035c-4.408 4.41-13.058 12.505-15.445 18.264-2.493 6.021-2.185 18.921-2.185 25.438 0 119.21 1.583 467.096 1.583 467.096s0.43 25.14-25.02 25.155c-19.715 0.01-20.682-19.349-20.682-25.155 0-163.262-0.074-384.174-0.106-473.819-0.008-23.821-1.835-28.482 0.755-37.136 3.017-10.088 21.238-23.289 29.017-30.333C714.522 339.27 902.504 145.44 902.504 145.44l-0.1-0.235c4.79-4.093 7.995-10.012 7.995-16.836 0-12.406-10.049-22.477-22.454-22.477H136.053c-12.405 0-22.475 10.071-22.475 22.477 0 6.805 3.228 12.742 8.016 16.836l-0.082 0.235s182.491 186.205 245.903 245.481c6.268 5.86 28.88 23.442 32.753 34.843 2.317 6.813 1.267 41.066 1.267 41.066v254.03s-2.949 9.472-22.437 9.403c-17.992-0.064-21.807-9.472-21.807-9.472s-2.495-173.352 0.007-254.597c0.173-5.588-1.004-17.262-2.731-21.987-2.24-6.126-10.452-14.318-15.104-18.487C273.783 366.954 90.25 176.7 90.25 176.7l0.3-0.277c-12.8-12.106-20.854-29.082-20.854-48.053 0-36.66 29.696-66.356 66.355-66.356h751.895c36.66 0 66.355 29.696 66.355 66.356 0 18.97-8.052 35.946-20.855 48.052z m0 0" p-id="5681"></path></svg>