<?xml version="1.0" standalone="no"?><!DOCTYPE svg PUBLIC "-//W3C//DTD SVG 1.1//EN" "http://www.w3.org/Graphics/SVG/1.1/DTD/svg11.dtd"><svg t="1508655609836" class="icon" style="" viewBox="0 0 1024 1024" version="1.1" xmlns="http://www.w3.org/2000/svg" p-id="2131" xmlns:xlink="http://www.w3.org/1999/xlink" width="200" height="200"><defs><style type="text/css"></style></defs><path d="M896 1024H128a128.256 128.256 0 0 1-128-128V213.333333a128.256 128.256 0 0 1 128-128h768a128.256 128.256 0 0 1 128 128v682.666667a128.256 128.256 0 0 1-128 128zM128 170.666667a42.666667 42.666667 0 0 0-42.666667 42.666666v682.666667a42.666667 42.666667 0 0 0 42.666667 42.666667h768a42.666667 42.666667 0 0 0 42.666667-42.666667V213.333333a42.666667 42.666667 0 0 0-42.666667-42.666666H128z m170.666667 85.333333a42.666667 42.666667 0 0 1-42.666667-42.666667V42.666667a42.666667 42.666667 0 0 1 85.333333 0v170.666666a42.666667 42.666667 0 0 1-42.666666 42.666667z m426.666666 0a42.666667 42.666667 0 0 1-42.666666-42.666667V42.666667a42.666667 42.666667 0 0 1 85.333333 0v170.666666a42.666667 42.666667 0 0 1-42.666667 42.666667z m213.333334 170.666667H85.333333a42.666667 42.666667 0 0 1 0-85.333334h853.333334a42.666667 42.666667 0 0 1 0 85.333334zM213.333333 554.666667h85.333334v85.333333H213.333333v-85.333333z m170.666667 0h85.333333v85.333333H384v-85.333333z m170.666667 0h85.333333v85.333333h-85.333333v-85.333333z m170.666666 0h85.333334v85.333333h-85.333334v-85.333333zM213.333333 725.333333h85.333334v85.333334H213.333333v-85.333334z m170.666667 0h85.333333v85.333334H384v-85.333334z m170.666667 0h85.333333v85.333334h-85.333333v-85.333334z m170.666666 0h85.333334v85.333334h-85.333334v-85.333334z" p-id="2132"></path></svg>