<?xml version="1.0" standalone="no"?><!DOCTYPE svg PUBLIC "-//W3C//DTD SVG 1.1//EN" "http://www.w3.org/Graphics/SVG/1.1/DTD/svg11.dtd"><svg t="1511925182585" class="icon" style="" viewBox="0 0 1038 1024" version="1.1" xmlns="http://www.w3.org/2000/svg" p-id="3256" xmlns:xlink="http://www.w3.org/1999/xlink" width="202.734375" height="200"><defs><style type="text/css"></style></defs><path d="M1007.428334 266.491267C991.486063 135.744819 888.139723 32.498611 757.377949 16.688145c-163.150037-19.725789-329.21-19.725789-492.360037 0C134.258182 32.497589 30.913886 135.739711 14.966506 266.482072c-9.947699 81.55867-14.966506 163.871388-14.966506 246.302628 0 82.432262 5.018806 164.740892 14.966506 246.297519C30.913886 889.823558 134.258182 993.062614 265.015869 1008.87308c163.154124 19.727833 329.207957 19.727833 492.362081 0 130.760752-15.810466 234.108113-119.055653 250.050385-249.800057 9.943613-81.548453 14.959354-163.85504 14.959354-246.288323C1022.387688 430.351416 1017.370925 348.041764 1007.428334 266.491267zM552.365018 794.066733l-76.580734 0c-5.286503 0-9.572719-4.286216-9.572719-9.572719L466.211565 571.093585 338.576327 571.093585l0 213.400428c0 5.286503-4.286216 9.572719-9.572719 9.572719l-76.580734 0c-5.286503 0-9.572719-4.286216-9.572719-9.572719L242.850155 229.282416c0-5.286503 4.286216-9.572719 9.572719-9.572719l76.580734 0c5.286503 0 9.572719 4.286216 9.572719 9.572719l0 245.423928c35.427951 0.047 81.609758 0.107283 127.635237 0.165523L466.211565 229.282416c0-5.286503 4.286216-9.572719 9.572719-9.572719l76.580734 0c5.286503 0 9.572719 4.286216 9.572719 9.572719l0 245.703886c44.04534 0.049044 78.323829 0.079696 88.30729 0.0705 33.430442 1.498898 39.160382-5.50107 38.847728-40.508062 0.540503-15.024745 0-206.763179 0-206.763179 0-4.750088 3.423864-8.603084 7.641623-8.603084l81.058016 0c4.220824 0 7.641623 3.852997 7.641623 8.603084l0 301.800696c-0.777547 27.97535-9.267218 40.864651-38.847728 41.507328l-184.649574 0 0 213.400428C561.937737 789.780517 557.651521 794.066733 552.365018 794.066733zM799.123344 806.380791l-31.40228-44.339602c-11.153357-15.844184-18.781698-25.828666-22.892174-29.952425-4.110476-4.122737-8.462084-6.948881-13.059932-8.478432-4.599891-1.529551-11.88697-2.294837-21.865321-2.294837l-8.804368 0 0 85.064274-43.435359 0L657.66391 602.614387l91.420543 0c22.98924 0 39.694754 1.829943 50.112456 5.48983 10.419745 3.662952 18.758198 10.171461 25.019445 19.528593 6.258182 9.361218 9.390849 20.062965 9.390849 32.109327 0 15.288355-4.744979 27.917111-14.232894 37.87605-9.49098 9.962004-23.675852 16.238577-42.555637 18.833807 9.390849 5.191481 17.144864 10.889747 23.257958 17.094799 6.114116 6.211182 14.358568 17.235799 24.727226 33.083049l26.265973 39.751972L799.123344 806.381813z" p-id="3257"></path><path d="M782.310546 676.629522c2.859861-3.973562 4.290303-8.936173 4.290303-14.897027 0-6.682206-1.884096-12.07497-5.647179-16.185447-3.768192-4.106389-9.080239-6.704684-15.944315-7.787733-3.429995-0.451611-13.724065-0.678438-30.884256-0.678438l-33.026853 0 0 50.381174 31.31441 0c20.303075 0 32.976787-0.811265 38.031355-2.435838C775.495514 683.400619 779.452728 680.603084 782.310546 676.629522z" p-id="3258"></path></svg>