<?xml version="1.0" standalone="no"?><!DOCTYPE svg PUBLIC "-//W3C//DTD SVG 1.1//EN" "http://www.w3.org/Graphics/SVG/1.1/DTD/svg11.dtd"><svg t="1512713246151" class="icon" style="" viewBox="0 0 1024 1024" version="1.1" xmlns="http://www.w3.org/2000/svg" p-id="6404" xmlns:xlink="http://www.w3.org/1999/xlink" width="200" height="200"><defs><style type="text/css"></style></defs><path d="M828.51 32.582H251.344c-79.127 0-148.945 65.163-148.945 153.6v83.782h55.855v-55.855c4.654-69.818 55.854-121.018 121.018-121.018h521.309c65.163 0 121.018 55.854 121.018 121.018v595.782c0 69.818-51.2 121.018-121.018 121.018h-521.31c-65.163 0-121.017-55.854-121.017-121.018v-55.855H102.4v83.782c0 83.782 65.164 153.6 148.945 153.6H828.51c83.782 0 148.946-69.818 148.946-153.6V186.182c0-88.437-65.164-153.6-148.946-153.6" fill="#1296db" p-id="6405"></path><path d="M539.927 512c-55.854 0-97.745-46.545-97.745-102.4s41.89-102.4 97.745-102.4 97.746 46.545 97.746 102.4S595.782 512 539.927 512m223.418 223.418c0-88.436-55.854-167.563-130.327-204.8 37.237-27.927 55.855-74.473 55.855-121.018 0-83.782-65.164-153.6-148.946-153.6-79.127 0-148.945 69.818-148.945 153.6 0 51.2 23.273 93.09 55.854 121.018-74.472 32.582-125.672 111.71-130.327 200.146v4.654c0 13.964 9.31 23.273 23.273 23.273s23.273-9.31 23.273-23.273c0-93.09 69.818-167.563 158.254-176.873h27.927c88.437 9.31 153.6 79.128 158.255 172.219v9.309c0 13.963 9.309 23.272 23.273 23.272s23.272-9.309 23.272-23.272l9.31-4.655m-572.51-311.854H74.473c-13.964 0-27.928-13.964-27.928-32.582 0-18.618 13.964-27.927 27.928-27.927h116.363c13.964 0 27.928 13.963 27.928 27.927 0 18.618-9.31 32.582-27.928 32.582m0 116.363H74.473c-13.964 0-27.928-9.309-27.928-27.927 0-18.618 13.964-27.927 27.928-27.927h116.363c13.964 0 27.928 13.963 27.928 27.927 0 18.618-9.31 27.927-27.928 27.927m0 121.018H74.473c-13.964 0-27.928-13.963-27.928-27.927s13.964-27.927 27.928-27.927h116.363c13.964 0 27.928 13.964 27.928 27.927s-9.31 27.927-27.928 27.927" fill="#1296db" p-id="6406"></path></svg>