<?xml version="1.0" standalone="no"?><!DOCTYPE svg PUBLIC "-//W3C//DTD SVG 1.1//EN" "http://www.w3.org/Graphics/SVG/1.1/DTD/svg11.dtd"><svg t="1512712995197" class="icon" style="" viewBox="0 0 1024 1024" version="1.1" xmlns="http://www.w3.org/2000/svg" p-id="4568" xmlns:xlink="http://www.w3.org/1999/xlink" width="200" height="200"><defs><style type="text/css"></style></defs><path d="M511.56992 4.2752c-279.47008 0-506.02496 226.55488-506.02496 506.02496 0 279.47008 226.55488 506.02496 506.02496 506.02496s506.03008-226.55488 506.03008-506.02496C1017.6 230.83008 791.04 4.2752 511.56992 4.2752zM512.1024 276.11648c55.64928 0 100.9408 50.33472 100.9408 112.17408 0 83.1744-85.22752 180.30592-88.89856 184.40704-3.15904 3.60448-7.77216 5.65248-12.57984 5.65248L511.488 578.35008c-4.80768 0-9.38496-2.08384-12.57984-5.74976-3.56352-4.0704-87.75168-101.20704-87.75168-184.30976C411.1616 326.4512 456.448 276.11648 512.1024 276.11648zM747.08992 727.66464c0 6.1952-3.38944 11.8784-8.81152 14.77632-5.4784 2.95936-12.05248 2.65728-17.18784-0.67072l-91.4176-59.76064L519.68 742.40512c-5.12 2.7904-11.30496 2.7904-16.41472-0.1024l-107.83744-61.19936-93.40416 60.66688c-2.7904 1.81248-5.94944 2.71872-9.14944 2.71872-2.75456 0-5.51424-0.70656-8.00256-2.048-5.41696-2.92864-8.81664-8.58112-8.81664-14.77632L276.05504 477.44512c0-5.41696 2.59072-10.46528 6.9632-13.66016l67.29216-48.75264c7.43424-5.3504 17.96608-3.80416 23.48544 3.76832 5.44768 7.53664 3.76832 18.03264-3.76832 23.52128l-60.32384 43.6736 0 210.688 75.97056-49.36192c5.28384-3.43552 11.9808-3.6352 17.4592-0.50688l108.57984 61.59872 110.592-60.79488c5.44768-2.9952 12.07808-2.72384 17.3312 0.67584l73.82016 48.2816L713.45664 485.92384l-60.0576-49.05472c-7.19872-5.85728-8.24832-16.4864-2.39104-23.68512 5.91872-7.23456 16.52224-8.21248 23.69024-2.39104L740.89984 464.896c3.9424 3.23072 6.19008 8.00768 6.19008 13.056L747.08992 727.66464z" fill="#1296db" p-id="4569"></path><path d="M579.38944 388.29056c0-43.30496-30.1824-78.53056-67.29216-78.53056-37.11488 0-67.29728 35.2256-67.29728 78.53056 0 52.95616 44.44672 117.4272 66.85696 146.55488C534.2976 505.78432 579.38944 441.24672 579.38944 388.29056zM477.93152 375.44448c0-18.57024 15.06816-33.64352 33.64352-33.64352 18.56512 0 33.64352 15.07328 33.64352 33.64352 0 18.57024-15.0784 33.64864-33.64352 33.64864C492.99968 409.088 477.93152 394.01472 477.93152 375.44448z" fill="#1296db" p-id="4570"></path></svg>