<?xml version="1.0" standalone="no"?><!DOCTYPE svg PUBLIC "-//W3C//DTD SVG 1.1//EN" "http://www.w3.org/Graphics/SVG/1.1/DTD/svg11.dtd"><svg t="1529481185164" class="icon" style="" viewBox="0 0 1024 1024" version="1.1" xmlns="http://www.w3.org/2000/svg" p-id="2992" xmlns:xlink="http://www.w3.org/1999/xlink" width="200" height="200"><defs><style type="text/css"></style></defs><path d="M174.5 877.2c-6.6 0-12.9-2.6-17.7-7.3-5.8-5.8-8.4-14.2-6.9-22.3l51-270.1c3.8-20 13.4-38.2 27.8-52.6l210.2-210.2c9.8-9.8 25.6-9.8 35.4 0 9.8 9.8 9.8 25.6 0 35.4L264.1 560.3c-7.3 7.3-12.1 16.4-14 26.5l-44.2 234 234-44.2c10.1-1.9 19.3-6.8 26.5-14l375.7-375.7C869 360 883.8 324 883.8 285.7c0-38.3-14.8-74.3-41.7-101.2-55.8-55.8-146.5-55.8-202.3 0l-45.6 45.6c-9.8 9.8-25.6 9.8-35.4 0-9.8-9.8-9.8-25.6 0-35.4l45.6-45.6c36.3-36.3 84.8-56.3 136.5-56.3s100.2 20 136.5 56.3 56.3 84.8 56.3 136.5-20 100.2-56.3 136.5L501.8 797.9c-14.4 14.4-32.6 24-52.6 27.8l-270.1 51c-1.5 0.4-3.1 0.5-4.6 0.5z" p-id="2993"></path><path d="M548.7 735.8c-6.4 0-12.8-2.4-17.7-7.3L304.5 501.8c-9.8-9.8-9.8-25.6 0-35.4 9.8-9.8 25.6-9.8 35.4 0L566.5 693c9.8 9.8 9.8 25.6 0 35.4-5 4.9-11.4 7.4-17.8 7.4z" p-id="2994"></path></svg>