<?xml version="1.0" standalone="no"?><!DOCTYPE svg PUBLIC "-//W3C//DTD SVG 1.1//EN" "http://www.w3.org/Graphics/SVG/1.1/DTD/svg11.dtd"><svg t="1511942696418" class="icon" style="" viewBox="0 0 1024 1024" version="1.1" xmlns="http://www.w3.org/2000/svg" p-id="994" xmlns:xlink="http://www.w3.org/1999/xlink" width="200" height="200"><defs><style type="text/css"></style></defs><path d="M863.0784 701.432832l-60.802048-92.327936c-22.580224-34.286592-58.354688-53.576704-92.495872-53.5808-16.200704-0.001024-32.027648 4.340736-45.915136 13.48608L541.65504 649.493504c-27.450368-33.499136-54.621184-70.34368-80.676864-109.910016s-49.173504-79.082496-69.10464-117.5296l122.20928-80.482304c43.14624-28.414976 51.132416-92.43648 17.836032-142.994432l-60.804096-92.327936c-22.580224-34.286592-58.354688-53.579776-92.494848-53.579776-16.201728 0-32.029696 4.340736-45.91616 13.48608L204.708864 150.44608l-5.479424 4.117504c-26.940416 22.921216-33.216512 71.883776-21.576704 136.225792 16.528384 91.364352 69.172224 213.731328 150.060032 336.555008 80.886784 122.82368 172.510208 219.521024 249.916416 270.792704 39.41376 26.107904 75.145216 40.435712 103.892992 40.435712 11.01312 0 20.999168-2.102272 29.77792-6.450176l5.950464-3.406848 127.992832-84.291584C888.389632 816.012288 896.375808 751.990784 863.0784 701.432832zM378.61888 103.868416c17.994752 0 37.516288 11.987968 49.734656 30.5408l60.804096 92.327936c9.271296 14.078976 13.536256 30.590976 11.701248 45.302784-0.859136 6.890496-3.944448 19.529728-14.937088 26.770432l-12.183552 8.024064-126.589952-188.88704 13.71648-9.032704C365.947904 105.566208 371.92192 103.868416 378.61888 103.868416zM690.419712 885.081088l-2.53952 1.45408c-1.101824 0.395264-3.072 0.83968-6.358016 0.83968-8.24832 0-32.124928-3.110912-75.619328-31.921152-35.401728-23.4496-74.969088-58.283008-114.422784-100.734976-42.304512-45.519872-83.018752-97.851392-121.00608-155.534336-37.989376-57.683968-69.982208-115.756032-95.090688-172.602368-23.415808-53.013504-39.788544-103.122944-47.347712-144.908288-10.46016-57.819136-1.246208-82.162688 3.818496-87.58272l2.34496-1.762304 100.120576-65.936384 126.590976 188.88704-97.197056 64.01024-38.523904 25.370624 21.22752 40.952832c21.167104 40.834048 45.325312 81.924096 71.801856 122.12736 26.4704 40.196096 54.67648 78.618624 83.835904 114.2016l29.237248 35.679232 38.524928-25.3696 99.72224-65.673216 126.589952 188.886016L690.419712 885.081088zM832.02048 774.89664c-0.859136 6.890496-3.943424 19.52768-14.938112 26.770432l-8.126464 5.352448L682.366976 618.131456l9.660416-6.361088c5.086208-3.349504 11.057152-5.046272 17.748992-5.046272 17.998848 0.002048 37.52448 11.990016 49.739776 30.5408l60.803072 92.32896C829.589504 743.671808 833.856512 760.183808 832.02048 774.89664z" p-id="995" fill="#ffffff"></path></svg>