<?xml version="1.0" standalone="no"?><!DOCTYPE svg PUBLIC "-//W3C//DTD SVG 1.1//EN" "http://www.w3.org/Graphics/SVG/1.1/DTD/svg11.dtd"><svg t="1510200485458" class="icon" style="" viewBox="0 0 1024 1024" version="1.1" xmlns="http://www.w3.org/2000/svg" p-id="1580" xmlns:xlink="http://www.w3.org/1999/xlink" width="200" height="200"><defs><style type="text/css"></style></defs><path d="M512 926.9C282.8 926.9 97.1 741.2 97.1 512S282.8 97.1 512 97.1 926.9 282.9 926.9 512c0 229.2-185.7 414.9-414.9 414.9z m0-782.8c-203.2 0-367.9 164.7-367.9 367.9S308.8 879.9 512 879.9 879.9 715.2 879.9 512 715.2 144.1 512 144.1zM724.5 616c-5.7 12.2-20.3 17.5-32.5 11.8l-195-65.2c-9.3-4.4-14.5-13.8-14-23.5-0.1-1-0.6-1.8-0.6-2.8V267c0-13.5 11-24.5 24.5-24.5s24.5 10.9 24.5 24.5v255.9l181.3 60.6c12.3 5.7 17.6 20.3 11.8 32.5z m0 0" fill="" p-id="1581"></path></svg>