<?xml version="1.0" standalone="no"?><!DOCTYPE svg PUBLIC "-//W3C//DTD SVG 1.1//EN" "http://www.w3.org/Graphics/SVG/1.1/DTD/svg11.dtd"><svg t="1509290877818" class="icon" style="" viewBox="0 0 1027 1024" version="1.1" xmlns="http://www.w3.org/2000/svg" p-id="1099" xmlns:xlink="http://www.w3.org/1999/xlink" width="200.5859375" height="200"><defs><style type="text/css"></style></defs><path d="M1017.815137 261.864056c-6.839779-8.151657-17.086144-12.82612-28.112268-12.82612l-34.222429 0L955.48044 144.574746l0 0c0-11.30344-9.162684-20.466124-20.466124-20.466124L367.889835 124.108622l-56.155974-76.133981c-3.444449-6.449899-10.236132-10.841929-18.059308-10.841929L21.48943 37.132712c-4.474918 0-8.600889 1.452071-11.968589 3.888564-5.550413 3.660366-9.217942 9.943466-9.217942 17.089214l0 820.519656c-1.261737 10.336416 1.642406 20.525476 8.111748 28.236088 6.839779 8.150634 17.08512 12.825097 28.111245 12.825097l842.142116 0c20.355607 0 39.092343-15.830547 42.658565-36.041868l104.290251-591.46075C1027.563152 281.146215 1024.719384 270.093485 1017.815137 261.864056zM283.532565 78.063937l58.45125 79.246879c3.548826 4.466732 8.595772 7.023974 13.849426 7.549953 0.846274 0.106424 1.701758 0.180102 2.576685 0.180102l556.137243 0 0 83.997066L147.561777 249.037936c-20.35663 0-39.093367 15.83157-42.657542 36.040844L41.234123 646.165676 41.234123 78.063937 283.532565 78.063937zM881.015472 876.535437c-0.168846 0.785899-1.574868 2.076288-2.409886 2.223644L41.785685 878.759081l103.427604-586.566276c0.170892-0.794086 1.607614-2.104941 2.347464-2.222621l836.880275 0L881.015472 876.535437z" p-id="1100"></path></svg>