<?xml version="1.0" standalone="no"?><!DOCTYPE svg PUBLIC "-//W3C//DTD SVG 1.1//EN" "http://www.w3.org/Graphics/SVG/1.1/DTD/svg11.dtd"><svg t="1511921389984" class="icon" style="" viewBox="0 0 1024 1024" version="1.1" xmlns="http://www.w3.org/2000/svg" p-id="2708" xmlns:xlink="http://www.w3.org/1999/xlink" width="200" height="200"><defs><style type="text/css"></style></defs><path d="M688.727877 911.127687c0 19.582373-18.487706 35.515857-41.23245 35.515857H114.271054c-22.744744 0-41.23245-15.933484-41.232451-35.515857v-35.515857c0-19.582373 18.487706-35.515857 41.232451-35.515857h533.102743c22.744744 0 41.23245 15.933484 41.232451 35.515857v35.515857h0.121629z" p-id="2709"></path><path d="M631.926832 864.178644c0 22.744744-18.487706 41.23245-41.23245 41.23245h-419.622283c-22.744744 0-41.23245-18.487706-41.232451-41.23245V117.737499c0-22.744744 18.487706-41.23245 41.232451-41.232451h419.622283c22.744744 0 41.23245 18.487706 41.23245 41.232451v746.441145z m-58.382231-687.937285c0-22.744744-18.487706-41.23245-41.23245-41.232451H219.237439c-22.744744 0-41.23245 18.487706-41.23245 41.232451v632.839054c0 22.744744 18.487706 41.23245 41.23245 41.232451h312.953082c22.744744 0 41.23245-18.487706 41.232451-41.232451V176.241359h0.121629z" p-id="2710"></path><path d="M627.669795 417.06806h137.563131v73.829196H627.669795v-73.829196z" p-id="2711"></path><path d="M696.512175 472.044661h68.720751v285.464782h-68.720751V472.044661z" p-id="2712"></path><path d="M696.512175 722.601734h189.134101v69.328899H696.512175v-69.328899z" p-id="2713"></path><path d="M816.803896 221.001069h68.84238v536.508374h-68.84238V221.001069z" p-id="2714"></path><path d="M816.803896 200.324029h134.157501v271.720632H816.803896V200.324029zM396.086946 627.000831c5.838223 5.838223 5.838223 15.203706 0 21.041929l-104.601496 104.601497c-5.838223 5.838223-15.203706 5.838223-21.041929 0-5.838223-5.838223-5.838223-15.203706 0-21.041929l104.601496-104.601497c5.838223-5.838223 15.203706-5.838223 21.041929 0z" p-id="2715"></path><path d="M471.010809 552.076969c5.838223 5.838223 5.838223 15.203706 0 21.041929l-104.601497 104.601496c-5.838223 5.838223-15.203706 5.838223-21.041929 0-5.838223-5.838223-5.838223-15.203706 0-21.041929l104.601497-104.601496c5.716593-5.838223 15.203706-5.838223 21.041929 0z" p-id="2716"></path><path d="M273.727521 555.360969c5.838223-5.838223 15.203706-5.838223 21.041929 0l104.601497 104.601497c5.838223 5.838223 5.838223 15.203706 0 21.041929-5.838223 5.838223-15.203706 5.838223-21.041929 0l-104.601497-104.601497c-5.838223-5.838223-5.838223-15.325336 0-21.041929z" p-id="2717"></path><path d="M342.083383 623.716831c5.838223-5.838223 15.203706-5.838223 21.041929 0l104.601496 104.601497c5.838223 5.838223 5.838223 15.203706 0 21.041929-5.838223 5.838223-15.203706 5.838223-21.041929 0l-104.601496-104.601497c-5.838223-5.838223-5.838223-15.203706 0-21.041929zM491.809479 430.81221c0 22.744744-18.487706 41.23245-41.232451 41.232451H295.742487c-22.744744 0-41.23245-18.487706-41.23245-41.232451V241.556479c0-22.744744 18.487706-41.23245 41.23245-41.23245h154.834541c22.744744 0 41.23245 18.487706 41.232451 41.23245v189.255731z" p-id="2718"></path></svg>