<?xml version="1.0" standalone="no"?><!DOCTYPE svg PUBLIC "-//W3C//DTD SVG 1.1//EN" "http://www.w3.org/Graphics/SVG/1.1/DTD/svg11.dtd"><svg t="1512959783277" class="icon" style="" viewBox="0 0 1457 1024" version="1.1" xmlns="http://www.w3.org/2000/svg" p-id="2322" xmlns:xlink="http://www.w3.org/1999/xlink" width="284.5703125" height="200"><defs><style type="text/css"></style></defs><path d="M519.876923 122.092308h496.246154v102.4h63.015385V90.584615C1079.138462 39.384615 1035.815385 0 984.615385 0H551.384615c-51.2 0-94.523077 39.384615-94.523077 90.584615v129.969231h63.015385V122.092308z m126.030769-74.83077h248.123077V78.769231h-248.123077v-31.507693z m370.215385 693.169231H519.876923v-122.092307h-63.015385v275.692307c0 51.2 43.323077 90.584615 94.523077 90.584616h433.23077c51.2 0 90.584615-39.384615 94.523077-90.584616v-275.692307h-63.015385v122.092307zM47.261538 275.692308v31.507692h133.907693v279.630769h35.446154v-196.923077c31.507692 15.753846 66.953846 39.384615 110.276923 66.953846l19.692307-31.507692C303.261538 397.784615 259.938462 374.153846 216.615385 354.461538V311.138462h149.661538V275.692308H47.261538z m378.092308 11.815384h66.953846v-27.56923h31.507693v27.56923h63.015384v31.507693h-63.015384v23.630769h78.76923c0-23.630769-3.938462-55.138462-3.938461-82.707692h31.507692c0 31.507692 0 59.076923 3.938462 82.707692h86.646154v31.507692h-86.646154c3.938462 27.569231 3.938462 51.2 7.876923 70.892308 0 7.876923 3.938462 11.815385 3.938461 19.692308 11.815385-23.630769 19.692308-51.2 23.63077-78.769231l31.507692 11.815384c-11.815385 43.323077-23.630769 78.769231-43.323077 110.276923 3.938462 3.938462 3.938462 11.815385 7.876923 15.753847 7.876923 15.753846 15.753846 23.630769 19.692308 23.630769 3.938462 0 7.876923-15.753846 11.815384-51.2l27.569231 15.753846c-7.876923 47.261538-19.692308 70.892308-35.446154 70.892308-11.815385 0-27.569231-11.815385-39.384615-31.507693-3.938462-3.938462-7.876923-7.876923-7.876923-15.753846-15.753846 23.630769-39.384615 39.384615-59.076923 51.2l-19.692308-27.569231c23.630769-11.815385 47.261538-31.507692 63.015385-59.076923l-11.815385-47.261538c-3.938462-23.630769-7.876923-47.261538-11.815385-78.769231h-196.923077v-31.507692h86.646154v-23.630769h-66.953846v-31.507693z m244.184616-23.630769c19.692308 19.692308 31.507692 35.446154 39.384615 51.2l-23.630769 15.753846c-11.815385-15.753846-23.630769-35.446154-43.323077-55.138461l27.569231-11.815385zM586.830769 512v27.569231c-15.753846 3.938462-35.446154 3.938462-51.2 7.876923v39.384615h-31.507692V551.384615c-23.630769 3.938462-51.2 3.938462-74.830769 7.876923l-3.938462-31.507692c27.569231 0 55.138462-3.938462 78.769231-3.938461v-27.569231h-66.953846l-7.876923-27.569231c7.876923-11.815385 15.753846-23.630769 23.630769-39.384615h-35.446154v-31.507693h47.261539c3.938462-3.938462 7.876923-11.815385 7.876923-19.692307l31.507692 7.876923c-3.938462 7.876923-3.938462 11.815385-7.876923 15.753846h86.646154v31.507692h-102.4c-7.876923 11.815385-11.815385 23.630769-19.692308 35.446154h35.446154v-23.630769h31.507692v23.630769h51.2v27.569231h-51.2v23.630769c23.630769-3.938462 43.323077-7.876923 59.076923-7.876923z m256-212.676923h43.323077L984.615385 551.384615h-43.323077l-23.63077-66.953846h-110.276923L787.692308 551.384615h-39.384616l94.523077-252.061538z m-19.692307 153.6H905.846154l-39.384616-114.215385-43.323076 114.215385z m189.046153-153.6h106.338462c59.076923 0 90.584615 23.630769 90.584615 78.769231 0 51.2-31.507692 78.769231-90.584615 78.76923h-66.953846V551.384615h-39.384616V299.323077z m39.384616 31.507692v86.646154h63.015384c19.692308 0 31.507692-3.938462 43.323077-11.815385 7.876923-7.876923 11.815385-19.692308 11.815385-35.446153s-3.938462-27.569231-11.815385-31.507693c-7.876923-7.876923-23.630769-11.815385-43.323077-11.815384h-63.015384z m196.923077-31.507692h106.338461c59.076923 0 90.584615 23.630769 90.584616 78.769231 0 51.2-31.507692 78.769231-90.584616 78.76923h-66.953846V551.384615h-39.384615V299.323077z m39.384615 31.507692v86.646154h63.015385c19.692308 0 31.507692-3.938462 43.323077-11.815385 7.876923-7.876923 11.815385-19.692308 11.815384-35.446153s-3.938462-27.569231-11.815384-31.507693c-7.876923-7.876923-23.630769-11.815385-43.323077-11.815384h-63.015385z" fill="#1296db" p-id="2323"></path></svg>