<?xml version="1.0" standalone="no"?><!DOCTYPE svg PUBLIC "-//W3C//DTD SVG 1.1//EN" "http://www.w3.org/Graphics/SVG/1.1/DTD/svg11.dtd"><svg t="1512959918500" class="icon" style="" viewBox="0 0 1024 1024" version="1.1" xmlns="http://www.w3.org/2000/svg" p-id="4008" xmlns:xlink="http://www.w3.org/1999/xlink" width="200" height="200"><defs><style type="text/css"></style></defs><path d="M471.451492 510.249123c-88.793302 4.100388-160.598698 51.671846-160.598698 111.01542 0 59.272965 71.805396 103.802134 160.598698 99.651604 88.889493-4.03592 160.823825-59.663868 160.823825-118.925576C632.274294 542.78105 560.340985 506.164085 471.451492 510.249123zM531.974937 659.501402c-27.198455 35.109636-81.011059 52.256154-133.285632 23.954575-24.863271-13.501502-23.940249-40.001039-23.940249-40.001039s-10.342556-83.672678 79.000262-94.111424C543.191396 538.953885 559.172369 624.39279 531.974937 659.501402zM429.729252 614.974279c-16.695241 1.736551-28.624944 16.291035-28.624944 30.181393 0 13.95585 13.420661 23.566742 30.115901 21.608134 16.597003-1.883907 30.116925-14.718213 30.116925-28.628014C461.337133 624.198362 448.888614 613.143585 429.729252 614.974279zM472.050126 603.482551c-5.722328 4.15053-6.889921 12.059664-3.777023 17.001209 2.982938 5.077645 9.952676 5.66093 15.592117 1.430582 5.51255-4.364401 7.653307-11.949146 4.670369-17.007349C485.552651 599.965447 478.68115 598.554308 472.050126 603.482551zM512.24457 66.981531c-246.678192 0-446.650643 199.972451-446.650643 446.650643s199.972451 446.650643 446.650643 446.650643 446.650643-199.972451 446.650643-446.650643S758.922762 66.981531 512.24457 66.981531zM711.664436 641.314181c-36.629245 77.771271-157.354817 115.635647-246.827595 108.615767-85.031629-6.694469-194.361663-34.930557-205.658963-137.825019 0 0-5.963829-46.616714 39.226397-106.915032 0 0 64.964594-90.753957 140.6606-116.655883 75.760474-25.755594 84.578304 17.847483 84.578304 43.618427-4.0175 21.883403-11.540847 34.737152 16.889669 25.900903 0 0 74.463945-34.523281 105.099686-3.888564 24.736381 24.733311 4.085038 58.756195 4.085038 58.756195s-10.243295 11.361769 10.862395 15.44783C681.745009 532.583804 748.266052 563.41295 711.664436 641.314181zM638.241192 426.446485c-8.106632 0-14.623046-6.548136-14.623046-14.604626 0-8.184403 6.516414-14.731516 14.623046-14.731516 0 0 91.269703-16.892739 80.362282 81.205487 0 0.583285-0.064468 1.037632-0.194428 1.556449-1.037632 6.935969-7.148817 12.269441-14.344706 12.269441-8.118911 0-14.734586-6.500041-14.734586-14.603603C689.329754 477.53914 703.789071 411.974889 638.241192 426.446485zM792.548604 504.900302l-0.130983 0c-2.399653 16.59598-10.647501 17.927301-20.455891 17.927301-11.735275 0-21.23258-7.393387-21.23258-19.128663 0-10.178827 4.211928-20.518313 4.211928-20.518313 1.25048-4.28049 11.18576-30.928407-6.547113-70.704318-32.451086-54.525847-97.835236-55.336306-105.553011-52.222385-7.779174 3.045359-19.285229 4.600785-19.285229 4.600785-11.803837 0-21.283746-9.628288-21.283746-21.299095 0-9.82067 6.565533-18.121729 15.512299-20.648272 0 0 0.191358-0.324388 0.518816-0.38988 0.647753-0.12996 1.297552-0.796132 2.010797-0.860601 9.092076-1.733481 41.558511-8.118911 73.101925-0.728594C749.887992 334.122777 827.399343 388.714116 792.548604 504.900302z" p-id="4009" fill="#1296db"></path></svg>