<?xml version="1.0" standalone="no"?><!DOCTYPE svg PUBLIC "-//W3C//DTD SVG 1.1//EN" "http://www.w3.org/Graphics/SVG/1.1/DTD/svg11.dtd"><svg t="1512031628124" class="icon" style="" viewBox="0 0 1027 1024" version="1.1" xmlns="http://www.w3.org/2000/svg" p-id="1546" xmlns:xlink="http://www.w3.org/1999/xlink" width="200.5859375" height="200"><defs><style type="text/css"></style></defs><path d="M0 805.285l146.643 0 0 146.643L0 951.928 0 805.285zM0 438.679l146.643 0 0 146.643L0 585.322 0 438.679zM0 72.072l146.643 0 0 146.643L0 218.715 0 72.072zM293.285 805.285l733.213 0 0 146.643L293.285 951.928 293.285 805.285zM293.285 438.679l733.213 0 0 146.643L293.285 585.322 293.285 438.679zM293.285 72.072l733.213 0 0 146.643L293.285 218.715 293.285 72.072z" p-id="1547" fill="#1296db"></path></svg>