<?xml version="1.0" standalone="no"?><!DOCTYPE svg PUBLIC "-//W3C//DTD SVG 1.1//EN" "http://www.w3.org/Graphics/SVG/1.1/DTD/svg11.dtd"><svg t="1511315227867" class="icon" style="" viewBox="0 0 1024 1024" version="1.1" xmlns="http://www.w3.org/2000/svg" p-id="1552" xmlns:xlink="http://www.w3.org/1999/xlink" width="200" height="200"><defs><style type="text/css"></style></defs><path d="M854.53312 259.712c11.28448-11.27936 11.28448-29.74208 0-41.02144l-49.22368-49.2288c-11.27936-11.27936-29.74208-11.27936-41.02144 0l-231.7824 231.77728c-11.27424 11.27936-29.73696 11.27936-41.01632 0L259.712 169.46176c-11.27936-11.27936-29.74208-11.27936-41.02144 0l-49.2288 49.2288c-11.27936 11.28448-11.27936 29.74208 0 41.02144l231.77728 231.77728c11.27936 11.27936 11.27936 29.73696 0 41.02144l-231.77728 231.77216c-11.27936 11.27936-11.27936 29.74208 0 41.02144l49.2288 49.2288c11.27936 11.28448 29.74208 11.28448 41.02144 0l231.77728-231.77216c11.27936-11.28448 29.73696-11.28448 41.02144 0l231.77728 231.77216c11.27936 11.28448 29.73696 11.28448 41.02144 0l49.22368-49.22368c11.28448-11.28448 11.28448-29.74208 0-41.02144l-231.77216-231.7824c-11.28448-11.27424-11.28448-29.73696 0-41.01632L854.528 259.712z" fill="#272636" p-id="1553"></path></svg>